<?xml version="1.0" encoding="UTF-8"?>
<svg id="Layer_2" data-name="Layer 2" xmlns="http://www.w3.org/2000/svg" viewBox="0 0 105.29 141.73">
  <defs>
    <style>
      .cls-1 {
        fill: #2c0947;
      }

      .cls-1, .cls-2, .cls-3, .cls-4, .cls-5, .cls-6, .cls-7, .cls-8 {
        stroke-width: 0px;
      }

      .cls-2 {
        fill: #c5cad1;
      }

      .cls-3 {
        fill: #747c8c;
      }

      .cls-4 {
        fill: #d13667;
      }

      .cls-5 {
        fill: #190526;
      }

      .cls-6 {
        fill: #3a58ac;
      }

      .cls-7 {
        fill: #341d6e;
      }

      .cls-8 {
        fill: #090111;
      }
    </style>
  </defs>
  <g id="Layer_1-2" data-name="Layer 1">
    <g>
      <polygon class="cls-8" points="105.29 25.91 105.29 42.89 97.56 42.89 97.56 47.18 65.7 47.18 61.83 47.18 57.97 47.18 57.97 42.89 54.1 42.89 54.1 47.18 50.24 47.18 46.38 47.18 46.38 51.47 42.51 51.47 38.65 51.47 38.65 55.76 34.78 55.76 34.78 51.47 30.92 51.47 30.92 47.18 30.92 42.89 30.92 38.6 30.92 34.31 30.92 30.03 34.78 30.03 38.65 30.03 42.51 30.03 46.38 30.03 50.24 30.03 54.1 30.03 57.97 30.03 61.83 30.03 65.7 30.03 69.56 30.03 73.43 30.03 73.43 25.74 77.29 25.74 81.15 25.74 81.15 21.45 81.15 17.16 81.15 12.87 81.15 8.58 81.15 4.29 105.29 25.91"/>
      <polygon class="cls-8" points="93.7 81.5 93.7 85.79 89.83 85.79 89.83 90.08 85.97 90.08 85.97 94.37 82.11 94.37 82.11 90.08 66.65 90.08 66.65 94.37 62.78 94.37 58.92 94.37 55.06 94.37 55.06 137.44 47.33 137.44 47.33 141.73 43.46 141.73 43.46 137.44 39.6 137.44 39.6 141.73 35.73 141.73 35.73 137.44 28.93 137.44 4.79 115.82 7.73 115.82 11.6 115.82 11.6 120.11 15.46 120.11 15.46 115.82 19.33 115.82 19.33 120.11 23.19 120.11 23.19 115.82 27.05 115.82 30.92 115.82 30.92 111.53 30.92 107.24 30.92 102.95 30.92 98.66 30.92 94.37 30.92 90.08 30.92 85.79 30.92 81.5 30.92 77.21 34.78 77.21 38.65 77.21 42.51 77.21 46.38 77.21 46.38 72.92 50.24 72.92 54.1 72.92 57.97 72.92 61.83 72.92 61.83 77.21 65.7 77.21 65.7 72.92 69.56 72.92 69.56 68.63 73.43 68.63 73.43 64.34 73.43 60.05 69.56 60.05 69.56 55.76 69.56 51.47 65.7 51.47 65.7 47.18 89.83 68.81 89.83 77.21 93.7 77.21 93.7 81.5"/>
      <rect class="cls-5" x="77.29" y="21.45" width="3.86" height="4.29"/>
      <rect class="cls-5" x="77.29" y="17.16" width="3.86" height="4.29"/>
      <rect class="cls-5" x="77.29" y="12.87" width="3.86" height="4.29"/>
      <rect class="cls-1" x="77.29" y="8.58" width="3.86" height="4.29"/>
      <polygon class="cls-7" points="81.15 4.29 81.15 8.58 77.29 8.58 77.29 5.09 81.15 4.29"/>
      <polygon class="cls-7" points="81.15 4.29 77.29 5.09 77.29 4.29 81.15 4.29"/>
      <rect class="cls-5" x="73.43" y="21.45" width="3.86" height="4.29"/>
      <rect class="cls-1" x="73.43" y="17.16" width="3.86" height="4.29"/>
      <rect class="cls-1" x="73.43" y="12.87" width="3.86" height="4.29"/>
      <rect class="cls-4" x="73.43" y="8.58" width="3.86" height="4.29"/>
      <polygon class="cls-7" points="77.29 5.09 77.29 8.58 73.43 8.58 73.43 5.9 77.29 5.09"/>
      <polygon class="cls-7" points="77.29 4.29 77.29 5.09 73.43 5.9 73.43 4.29 77.29 4.29"/>
      <rect class="cls-4" x="69.56" y="64.34" width="3.87" height="4.29"/>
      <rect class="cls-5" x="69.56" y="60.05" width="3.87" height="4.29"/>
      <rect class="cls-5" x="69.56" y="25.74" width="3.87" height="4.29"/>
      <rect class="cls-5" x="69.56" y="21.45" width="3.87" height="4.29"/>
      <rect class="cls-1" x="69.56" y="17.16" width="3.87" height="4.29"/>
      <rect class="cls-4" x="69.56" y="12.87" width="3.87" height="4.29"/>
      <rect class="cls-7" x="69.56" y="8.58" width="3.87" height="4.29"/>
      <polygon class="cls-4" points="73.43 5.9 73.43 8.58 69.56 8.58 69.56 6.7 73.43 5.9"/>
      <polygon class="cls-4" points="73.43 4.29 73.43 5.9 69.56 6.7 69.56 4.29 73.43 4.29"/>
      <rect class="cls-4" x="65.7" y="68.63" width="3.86" height="4.29"/>
      <rect class="cls-5" x="65.7" y="64.34" width="3.86" height="4.29"/>
      <rect class="cls-4" x="65.7" y="60.05" width="3.86" height="4.29"/>
      <rect class="cls-1" x="65.7" y="55.76" width="3.86" height="4.29"/>
      <rect class="cls-1" x="65.7" y="51.47" width="3.86" height="4.29"/>
      <rect class="cls-1" x="65.7" y="25.74" width="3.86" height="4.29"/>
      <rect class="cls-1" x="65.7" y="21.45" width="3.86" height="4.29"/>
      <rect class="cls-1" x="65.7" y="17.16" width="3.86" height="4.29"/>
      <rect class="cls-5" x="65.7" y="12.87" width="3.86" height="4.29"/>
      <rect class="cls-7" x="65.7" y="8.58" width="3.86" height="4.29"/>
      <polygon class="cls-7" points="69.56 6.7 69.56 8.58 65.7 8.58 65.7 7.51 69.56 6.7"/>
      <polygon class="cls-7" points="69.56 4.29 69.56 6.7 65.7 7.51 65.7 4.29 69.56 4.29"/>
      <rect class="cls-4" x="61.83" y="72.92" width="3.87" height="4.29"/>
      <rect class="cls-5" x="61.83" y="68.63" width="3.87" height="4.29"/>
      <rect class="cls-4" x="61.83" y="64.34" width="3.87" height="4.29"/>
      <rect class="cls-5" x="61.83" y="60.05" width="3.87" height="4.29"/>
      <rect class="cls-4" x="61.83" y="55.76" width="3.87" height="4.29"/>
      <rect class="cls-4" x="61.83" y="51.47" width="3.87" height="4.29"/>
      <rect class="cls-3" x="61.83" y="47.18" width="3.87" height="4.29"/>
      <rect class="cls-5" x="61.83" y="25.74" width="3.87" height="4.29"/>
      <rect class="cls-5" x="61.83" y="21.45" width="3.87" height="4.29"/>
      <rect class="cls-4" x="61.83" y="17.16" width="3.87" height="4.29"/>
      <rect class="cls-7" x="61.83" y="12.87" width="3.87" height="4.29"/>
      <rect class="cls-7" x="61.83" y="8.58" width="3.87" height="4.29"/>
      <polygon class="cls-4" points="65.7 7.51 65.7 8.58 61.83 8.58 61.83 8.31 65.7 7.51"/>
      <polygon class="cls-4" points="65.7 4.29 65.7 7.51 61.83 8.31 61.83 4.29 65.7 4.29"/>
      <rect class="cls-4" x="57.97" y="68.63" width="3.86" height="4.29"/>
      <rect class="cls-5" x="57.97" y="64.34" width="3.86" height="4.29"/>
      <rect class="cls-1" x="57.97" y="60.05" width="3.86" height="4.29"/>
      <rect class="cls-7" x="57.97" y="55.76" width="3.86" height="4.29"/>
      <rect class="cls-3" x="57.97" y="51.47" width="3.86" height="4.29"/>
      <rect class="cls-6" x="57.97" y="47.18" width="3.86" height="4.29"/>
      <rect class="cls-4" x="57.97" y="25.74" width="3.86" height="4.29"/>
      <rect class="cls-4" x="57.97" y="21.45" width="3.86" height="4.29"/>
      <rect class="cls-6" x="57.97" y="17.16" width="3.86" height="4.29"/>
      <rect class="cls-4" x="57.97" y="12.87" width="3.86" height="4.29"/>
      <polygon class="cls-6" points="61.83 8.58 61.83 12.87 57.97 12.87 57.97 9.12 60.54 8.58 61.83 8.58"/>
      <polygon class="cls-6" points="61.83 8.31 61.83 8.58 60.54 8.58 61.83 8.31"/>
      <polygon class="cls-6" points="61.83 4.29 61.83 8.31 60.54 8.58 57.97 8.58 57.97 4.29 61.83 4.29"/>
      <polygon class="cls-6" points="60.54 8.58 57.97 9.12 57.97 8.58 60.54 8.58"/>
      <rect class="cls-5" x="54.1" y="68.63" width="3.87" height="4.29"/>
      <rect class="cls-4" x="54.1" y="64.34" width="3.87" height="4.29"/>
      <rect class="cls-4" x="54.1" y="60.05" width="3.87" height="4.29"/>
      <rect class="cls-7" x="54.1" y="55.76" width="3.87" height="4.29"/>
      <rect class="cls-2" x="54.1" y="51.47" width="3.87" height="4.29"/>
      <rect class="cls-2" x="54.1" y="47.18" width="3.87" height="4.29"/>
      <rect class="cls-6" x="54.1" y="42.89" width="3.87" height="4.29"/>
      <rect class="cls-4" x="54.1" y="25.74" width="3.87" height="4.29"/>
      <rect class="cls-4" x="54.1" y="21.45" width="3.87" height="4.29"/>
      <rect class="cls-4" x="54.1" y="17.16" width="3.87" height="4.29"/>
      <rect class="cls-4" x="54.1" y="12.87" width="3.87" height="4.29"/>
      <polygon class="cls-6" points="57.97 9.12 57.97 12.87 54.1 12.87 54.1 9.92 57.97 9.12"/>
      <polygon class="cls-6" points="57.97 8.58 57.97 9.12 54.1 9.92 54.1 8.58 57.97 8.58"/>
      <rect class="cls-4" x="54.1" y="4.29" width="3.87" height="4.29"/>
      <rect class="cls-4" x="50.24" y="68.63" width="3.86" height="4.29"/>
      <rect class="cls-5" x="50.24" y="64.34" width="3.86" height="4.29"/>
      <rect class="cls-1" x="50.24" y="60.05" width="3.86" height="4.29"/>
      <rect class="cls-2" x="50.24" y="55.76" width="3.86" height="4.29"/>
      <rect class="cls-6" x="50.24" y="51.47" width="3.86" height="4.29"/>
      <rect class="cls-2" x="50.24" y="47.18" width="3.86" height="4.29"/>
      <rect class="cls-1" x="50.24" y="25.74" width="3.86" height="4.29"/>
      <rect class="cls-6" x="50.24" y="21.45" width="3.86" height="4.29"/>
      <rect class="cls-3" x="50.24" y="17.16" width="3.86" height="4.29"/>
      <rect class="cls-2" x="50.24" y="12.87" width="3.86" height="4.29"/>
      <polygon class="cls-2" points="54.1 9.92 54.1 12.87 50.24 12.87 50.24 10.73 54.1 9.92"/>
      <polygon class="cls-2" points="54.1 8.58 54.1 9.92 50.24 10.73 50.24 8.58 54.1 8.58"/>
      <rect class="cls-6" x="50.24" y="4.29" width="3.86" height="4.29"/>
      <rect class="cls-3" x="50.24" width="3.86" height="4.29"/>
      <rect class="cls-5" x="46.38" y="68.63" width="3.86" height="4.29"/>
      <rect class="cls-1" x="46.38" y="64.34" width="3.86" height="4.29"/>
      <rect class="cls-1" x="46.38" y="60.05" width="3.86" height="4.29"/>
      <rect class="cls-6" x="46.38" y="55.76" width="3.86" height="4.29"/>
      <rect class="cls-2" x="46.38" y="51.47" width="3.86" height="4.29"/>
      <rect class="cls-6" x="46.38" y="47.18" width="3.86" height="4.29"/>
      <rect class="cls-1" x="46.38" y="25.74" width="3.86" height="4.29"/>
      <rect class="cls-2" x="46.38" y="21.45" width="3.86" height="4.29"/>
      <rect class="cls-6" x="46.38" y="17.16" width="3.86" height="4.29"/>
      <rect class="cls-6" x="46.38" y="12.87" width="3.86" height="4.29"/>
      <polygon class="cls-7" points="50.24 10.73 50.24 12.87 46.38 12.87 46.38 11.53 50.24 10.73"/>
      <polygon class="cls-7" points="50.24 8.58 50.24 10.73 46.38 11.53 46.38 8.58 50.24 8.58"/>
      <rect class="cls-6" x="46.38" y="4.29" width="3.86" height="4.29"/>
      <rect class="cls-2" x="46.38" width="3.86" height="4.29"/>
      <rect class="cls-1" x="42.51" y="72.92" width="3.87" height="4.29"/>
      <rect class="cls-1" x="42.51" y="68.63" width="3.87" height="4.29"/>
      <rect class="cls-5" x="42.51" y="64.34" width="3.87" height="4.29"/>
      <rect class="cls-4" x="42.51" y="60.05" width="3.87" height="4.29"/>
      <rect class="cls-4" x="42.51" y="55.76" width="3.87" height="4.29"/>
      <rect class="cls-3" x="42.51" y="51.47" width="3.87" height="4.29"/>
      <rect class="cls-1" x="42.51" y="25.74" width="3.87" height="4.29"/>
      <rect class="cls-4" x="42.51" y="21.45" width="3.87" height="4.29"/>
      <rect class="cls-2" x="42.51" y="17.16" width="3.87" height="4.29"/>
      <rect class="cls-2" x="42.51" y="12.87" width="3.87" height="4.29"/>
      <polygon class="cls-6" points="46.38 11.53 46.38 12.87 42.51 12.87 42.51 12.33 46.38 11.53"/>
      <polygon class="cls-6" points="46.38 8.58 46.38 11.53 42.51 12.33 42.51 8.58 46.38 8.58"/>
      <rect class="cls-6" x="42.51" y="4.29" width="3.87" height="4.29"/>
      <rect class="cls-5" x="38.65" y="72.92" width="3.86" height="4.29"/>
      <rect class="cls-4" x="38.65" y="68.63" width="3.86" height="4.29"/>
      <rect class="cls-4" x="38.65" y="64.34" width="3.86" height="4.29"/>
      <rect class="cls-6" x="38.65" y="60.05" width="3.86" height="4.29"/>
      <rect class="cls-2" x="38.65" y="55.76" width="3.86" height="4.29"/>
      <rect class="cls-2" x="38.65" y="51.47" width="3.86" height="4.29"/>
      <rect class="cls-1" x="38.65" y="25.74" width="3.86" height="4.29"/>
      <rect class="cls-6" x="38.65" y="21.45" width="3.86" height="4.29"/>
      <rect class="cls-6" x="38.65" y="17.16" width="3.86" height="4.29"/>
      <polygon class="cls-6" points="42.51 12.87 42.51 17.16 38.65 17.16 38.65 13.14 39.94 12.87 42.51 12.87"/>
      <polygon class="cls-2" points="42.51 12.33 42.51 12.87 39.94 12.87 42.51 12.33"/>
      <polygon class="cls-2" points="42.51 8.58 42.51 12.33 39.94 12.87 38.65 12.87 38.65 8.58 42.51 8.58"/>
      <rect class="cls-3" x="38.65" y="4.29" width="3.86" height="4.29"/>
      <polygon class="cls-6" points="39.94 12.87 38.65 13.14 38.65 12.87 39.94 12.87"/>
      <rect class="cls-1" x="34.78" y="72.92" width="3.87" height="4.29"/>
      <rect class="cls-4" x="34.78" y="68.63" width="3.87" height="4.29"/>
      <rect class="cls-6" x="34.78" y="64.34" width="3.87" height="4.29"/>
      <rect class="cls-2" x="34.78" y="60.05" width="3.87" height="4.29"/>
      <rect class="cls-7" x="34.78" y="55.76" width="3.87" height="4.29"/>
      <rect class="cls-1" x="34.78" y="25.74" width="3.87" height="4.29"/>
      <rect class="cls-6" x="34.78" y="21.45" width="3.87" height="4.29"/>
      <rect class="cls-2" x="34.78" y="17.16" width="3.87" height="4.29"/>
      <polygon class="cls-2" points="38.65 13.14 38.65 17.16 34.78 17.16 34.78 13.94 38.65 13.14"/>
      <polygon class="cls-2" points="38.65 12.87 38.65 13.14 34.78 13.94 34.78 12.87 38.65 12.87"/>
      <rect class="cls-6" x="34.78" y="8.58" width="3.87" height="4.29"/>
      <rect class="cls-4" x="30.92" y="72.92" width="3.86" height="4.29"/>
      <rect class="cls-1" x="30.92" y="68.63" width="3.86" height="4.29"/>
      <rect class="cls-7" x="30.92" y="64.34" width="3.86" height="4.29"/>
      <rect class="cls-3" x="30.92" y="60.05" width="3.86" height="4.29"/>
      <rect class="cls-7" x="30.92" y="55.76" width="3.86" height="4.29"/>
      <rect class="cls-2" x="30.92" y="51.47" width="3.86" height="4.29"/>
      <rect class="cls-4" x="30.92" y="25.74" width="3.86" height="4.29"/>
      <rect class="cls-4" x="30.92" y="21.45" width="3.86" height="4.29"/>
      <rect class="cls-3" x="30.92" y="17.16" width="3.86" height="4.29"/>
      <polygon class="cls-2" points="34.78 13.94 34.78 17.16 30.92 17.16 30.92 14.75 34.78 13.94"/>
      <polygon class="cls-2" points="34.78 12.87 34.78 13.94 30.92 14.75 30.92 12.87 34.78 12.87"/>
      <rect class="cls-6" x="30.92" y="8.58" width="3.86" height="4.29"/>
      <rect class="cls-2" x="30.92" y="4.29" width="3.86" height="4.29"/>
      <rect class="cls-2" x="30.92" width="3.86" height="4.29"/>
      <rect class="cls-5" x="27.05" y="111.53" width="3.87" height="4.29"/>
      <rect class="cls-1" x="27.05" y="107.24" width="3.87" height="4.29"/>
      <rect class="cls-1" x="27.05" y="102.95" width="3.87" height="4.29"/>
      <rect class="cls-1" x="27.05" y="98.66" width="3.87" height="4.29"/>
      <rect class="cls-4" x="27.05" y="94.37" width="3.87" height="4.29"/>
      <rect class="cls-1" x="27.05" y="90.08" width="3.87" height="4.29"/>
      <rect class="cls-4" x="27.05" y="85.79" width="3.87" height="4.29"/>
      <rect class="cls-1" x="27.05" y="81.5" width="3.87" height="4.29"/>
      <rect class="cls-4" x="27.05" y="77.21" width="3.87" height="4.29"/>
      <rect class="cls-1" x="27.05" y="72.92" width="3.87" height="4.29"/>
      <rect class="cls-4" x="27.05" y="68.63" width="3.87" height="4.29"/>
      <rect class="cls-2" x="27.05" y="64.34" width="3.87" height="4.29"/>
      <rect class="cls-7" x="27.05" y="60.05" width="3.87" height="4.29"/>
      <rect class="cls-7" x="27.05" y="55.76" width="3.87" height="4.29"/>
      <rect class="cls-3" x="27.05" y="51.47" width="3.87" height="4.29"/>
      <rect class="cls-2" x="27.05" y="47.18" width="3.87" height="4.29"/>
      <rect class="cls-5" x="27.05" y="42.89" width="3.87" height="4.29"/>
      <rect class="cls-3" x="27.05" y="38.6" width="3.87" height="4.29"/>
      <rect class="cls-2" x="27.05" y="34.31" width="3.87" height="4.29"/>
      <rect class="cls-4" x="27.05" y="30.03" width="3.87" height="4.28"/>
      <rect class="cls-6" x="27.05" y="25.74" width="3.87" height="4.29"/>
      <rect class="cls-2" x="27.05" y="21.45" width="3.87" height="4.29"/>
      <rect class="cls-7" x="27.05" y="17.16" width="3.87" height="4.29"/>
      <polygon class="cls-2" points="30.92 14.75 30.92 17.16 27.05 17.16 27.05 15.55 30.92 14.75"/>
      <polygon class="cls-2" points="30.92 12.87 30.92 14.75 27.05 15.55 27.05 12.87 30.92 12.87"/>
      <rect class="cls-2" x="27.05" y="8.58" width="3.87" height="4.29"/>
      <rect class="cls-3" x="27.05" y="4.29" width="3.87" height="4.29"/>
      <rect class="cls-1" x="23.19" y="111.53" width="3.86" height="4.29"/>
      <rect class="cls-1" x="23.19" y="107.24" width="3.86" height="4.29"/>
      <rect class="cls-1" x="23.19" y="102.95" width="3.86" height="4.29"/>
      <rect class="cls-5" x="23.19" y="98.66" width="3.86" height="4.29"/>
      <rect class="cls-1" x="23.19" y="94.37" width="3.86" height="4.29"/>
      <rect class="cls-4" x="23.19" y="90.08" width="3.86" height="4.29"/>
      <rect class="cls-1" x="23.19" y="85.79" width="3.86" height="4.29"/>
      <rect class="cls-1" x="23.19" y="81.5" width="3.86" height="4.29"/>
      <rect class="cls-1" x="23.19" y="77.21" width="3.86" height="4.29"/>
      <rect class="cls-2" x="23.19" y="72.92" width="3.86" height="4.29"/>
      <rect class="cls-3" x="23.19" y="68.63" width="3.86" height="4.29"/>
      <rect class="cls-4" x="23.19" y="64.34" width="3.86" height="4.29"/>
      <rect class="cls-7" x="23.19" y="60.05" width="3.86" height="4.29"/>
      <rect class="cls-4" x="23.19" y="55.76" width="3.86" height="4.29"/>
      <rect class="cls-5" x="23.19" y="51.47" width="3.86" height="4.29"/>
      <rect class="cls-7" x="23.19" y="47.18" width="3.86" height="4.29"/>
      <rect class="cls-4" x="23.19" y="42.89" width="3.86" height="4.29"/>
      <rect class="cls-5" x="23.19" y="38.6" width="3.86" height="4.29"/>
      <rect class="cls-4" x="23.19" y="34.31" width="3.86" height="4.29"/>
      <rect class="cls-2" x="23.19" y="30.03" width="3.86" height="4.28"/>
      <rect class="cls-2" x="23.19" y="25.74" width="3.86" height="4.29"/>
      <rect class="cls-3" x="23.19" y="21.45" width="3.86" height="4.29"/>
      <rect class="cls-2" x="23.19" y="17.16" width="3.86" height="4.29"/>
      <polygon class="cls-2" points="27.05 15.55 27.05 17.16 23.19 17.16 23.19 16.36 27.05 15.55"/>
      <polygon class="cls-2" points="27.05 12.87 27.05 15.55 23.19 16.36 23.19 12.87 27.05 12.87"/>
      <rect class="cls-5" x="19.33" y="115.82" width="3.86" height="4.29"/>
      <rect class="cls-5" x="19.33" y="111.53" width="3.86" height="4.29"/>
      <rect class="cls-5" x="19.33" y="107.24" width="3.86" height="4.29"/>
      <rect class="cls-5" x="19.33" y="102.95" width="3.86" height="4.29"/>
      <rect class="cls-1" x="19.33" y="98.66" width="3.86" height="4.29"/>
      <rect class="cls-1" x="19.33" y="94.37" width="3.86" height="4.29"/>
      <rect class="cls-7" x="19.33" y="90.08" width="3.86" height="4.29"/>
      <rect class="cls-1" x="19.33" y="85.79" width="3.86" height="4.29"/>
      <rect class="cls-4" x="19.33" y="81.5" width="3.86" height="4.29"/>
      <rect class="cls-1" x="19.33" y="77.21" width="3.86" height="4.29"/>
      <rect class="cls-5" x="19.33" y="72.92" width="3.86" height="4.29"/>
      <rect class="cls-4" x="19.33" y="68.63" width="3.86" height="4.29"/>
      <rect class="cls-6" x="19.33" y="64.34" width="3.86" height="4.29"/>
      <rect class="cls-2" x="19.33" y="60.05" width="3.86" height="4.29"/>
      <rect class="cls-7" x="19.33" y="55.76" width="3.86" height="4.29"/>
      <rect class="cls-4" x="19.33" y="51.47" width="3.86" height="4.29"/>
      <rect class="cls-5" x="19.33" y="47.18" width="3.86" height="4.29"/>
      <rect class="cls-4" x="19.33" y="42.89" width="3.86" height="4.29"/>
      <rect class="cls-6" x="19.33" y="38.6" width="3.86" height="4.29"/>
      <rect class="cls-2" x="19.33" y="34.31" width="3.86" height="4.29"/>
      <rect class="cls-2" x="19.33" y="30.03" width="3.86" height="4.28"/>
      <rect class="cls-6" x="19.33" y="25.74" width="3.86" height="4.29"/>
      <rect class="cls-6" x="19.33" y="21.45" width="3.86" height="4.29"/>
      <rect class="cls-6" x="19.33" y="17.16" width="3.86" height="4.29"/>
      <polygon class="cls-2" points="23.19 16.36 23.19 17.16 19.33 17.16 23.19 16.36"/>
      <polygon class="cls-2" points="23.19 12.87 23.19 16.36 19.33 17.16 19.33 12.87 23.19 12.87"/>
      <rect class="cls-2" x="19.33" y="8.58" width="3.86" height="4.29"/>
      <rect class="cls-1" x="15.46" y="111.53" width="3.87" height="4.29"/>
      <rect class="cls-4" x="15.46" y="107.24" width="3.87" height="4.29"/>
      <rect class="cls-4" x="15.46" y="102.95" width="3.87" height="4.29"/>
      <polygon class="cls-1" points="19.33 98.66 19.33 102.95 15.46 102.95 15.65 98.66 19.33 98.66"/>
      <polygon class="cls-1" points="19.33 94.37 19.33 98.66 15.65 98.66 15.85 94.37 19.33 94.37"/>
      <polygon class="cls-1" points="19.33 90.08 19.33 94.37 15.85 94.37 16.04 90.08 19.33 90.08"/>
      <polygon class="cls-4" points="19.33 85.79 19.33 90.08 16.04 90.08 16.23 85.79 19.33 85.79"/>
      <polygon class="cls-1" points="19.33 81.5 19.33 85.79 16.23 85.79 16.43 81.5 19.33 81.5"/>
      <polygon class="cls-4" points="19.33 77.21 19.33 81.5 16.43 81.5 16.62 77.21 19.33 77.21"/>
      <polygon class="cls-7" points="19.33 72.92 19.33 77.21 16.62 77.21 16.81 72.92 19.33 72.92"/>
      <polygon class="cls-5" points="19.33 68.63 19.33 72.92 16.81 72.92 17.01 68.63 19.33 68.63"/>
      <polygon class="cls-2" points="19.33 64.34 19.33 68.63 17.01 68.63 17.2 64.34 19.33 64.34"/>
      <polygon class="cls-7" points="19.33 60.05 19.33 64.34 17.2 64.34 17.4 60.05 19.33 60.05"/>
      <polygon class="cls-6" points="19.33 55.76 19.33 60.05 17.4 60.05 17.59 55.76 19.33 55.76"/>
      <polygon class="cls-2" points="19.33 51.47 19.33 55.76 17.59 55.76 17.78 51.47 19.33 51.47"/>
      <polygon class="cls-6" points="19.33 47.18 19.33 51.47 17.78 51.47 17.98 47.18 19.33 47.18"/>
      <polygon class="cls-7" points="19.33 42.89 19.33 47.18 17.98 47.18 18.17 42.89 19.33 42.89"/>
      <polygon class="cls-6" points="19.33 38.6 19.33 42.89 18.17 42.89 18.36 38.6 19.33 38.6"/>
      <polygon class="cls-6" points="19.33 34.31 19.33 38.6 18.36 38.6 18.56 34.31 19.33 34.31"/>
      <polygon class="cls-6" points="19.33 30.03 19.33 34.31 18.56 34.31 18.75 30.03 19.33 30.03"/>
      <polygon class="cls-6" points="19.33 25.74 19.33 30.03 18.75 30.03 18.94 25.74 19.33 25.74"/>
      <polygon class="cls-4" points="19.33 21.45 19.33 25.74 18.94 25.74 19.14 21.45 19.33 21.45"/>
      <polygon class="cls-6" points="19.33 17.16 19.33 21.45 19.14 21.45 19.33 17.16"/>
      <rect class="cls-6" x="15.46" y="12.87" width="3.87" height="4.29"/>
      <rect class="cls-6" x="15.46" y="8.58" width="3.87" height="4.29"/>
      <polygon class="cls-6" points="19.33 17.16 19.14 21.45 15.46 21.45 15.46 17.16 19.33 17.16"/>
      <polygon class="cls-4" points="19.14 21.45 18.94 25.74 15.46 25.74 15.46 21.45 19.14 21.45"/>
      <polygon class="cls-6" points="18.94 25.74 18.75 30.03 15.46 30.03 15.46 25.74 18.94 25.74"/>
      <polygon class="cls-6" points="18.75 30.03 18.56 34.31 15.46 34.31 15.46 30.03 18.75 30.03"/>
      <polygon class="cls-6" points="18.56 34.31 18.36 38.6 15.46 38.6 15.46 34.31 18.56 34.31"/>
      <polygon class="cls-6" points="18.36 38.6 18.17 42.89 15.46 42.89 15.46 38.6 18.36 38.6"/>
      <polygon class="cls-7" points="18.17 42.89 17.98 47.18 15.46 47.18 15.46 42.89 18.17 42.89"/>
      <polygon class="cls-6" points="17.98 47.18 17.78 51.47 15.46 51.47 15.46 47.18 17.98 47.18"/>
      <polygon class="cls-2" points="17.78 51.47 17.59 55.76 15.46 55.76 15.46 51.47 17.78 51.47"/>
      <polygon class="cls-6" points="17.59 55.76 17.4 60.05 15.46 60.05 15.46 55.76 17.59 55.76"/>
      <polygon class="cls-7" points="17.4 60.05 17.2 64.34 15.46 64.34 15.46 60.05 17.4 60.05"/>
      <polygon class="cls-2" points="17.2 64.34 17.01 68.63 15.46 68.63 15.46 64.34 17.2 64.34"/>
      <polygon class="cls-5" points="17.01 68.63 16.81 72.92 15.46 72.92 15.46 68.63 17.01 68.63"/>
      <polygon class="cls-7" points="16.81 72.92 16.62 77.21 15.46 77.21 15.46 72.92 16.81 72.92"/>
      <polygon class="cls-4" points="16.62 77.21 16.43 81.5 15.46 81.5 15.46 77.21 16.62 77.21"/>
      <polygon class="cls-1" points="16.43 81.5 16.23 85.79 15.46 85.79 15.46 81.5 16.43 81.5"/>
      <polygon class="cls-4" points="16.23 85.79 16.04 90.08 15.46 90.08 15.46 85.79 16.23 85.79"/>
      <polygon class="cls-1" points="16.04 90.08 15.85 94.37 15.46 94.37 15.46 90.08 16.04 90.08"/>
      <polygon class="cls-1" points="15.85 94.37 15.65 98.66 15.46 98.66 15.46 94.37 15.85 94.37"/>
      <polygon class="cls-1" points="15.65 98.66 15.46 102.95 15.46 98.66 15.65 98.66"/>
      <rect class="cls-5" x="11.6" y="115.82" width="3.86" height="4.29"/>
      <rect class="cls-4" x="11.6" y="111.53" width="3.86" height="4.29"/>
      <rect class="cls-5" x="11.6" y="107.24" width="3.86" height="4.29"/>
      <polygon class="cls-1" points="15.46 102.95 15.46 107.24 11.6 107.24 11.6 105.09 15.46 102.95"/>
      <rect class="cls-1" x="11.6" y="98.66" width="3.86" height="4.29"/>
      <rect class="cls-5" x="11.6" y="94.37" width="3.86" height="4.29"/>
      <rect class="cls-4" x="11.6" y="90.08" width="3.86" height="4.29"/>
      <rect class="cls-4" x="11.6" y="85.79" width="3.86" height="4.29"/>
      <rect class="cls-4" x="11.6" y="81.5" width="3.86" height="4.29"/>
      <rect class="cls-1" x="11.6" y="77.21" width="3.86" height="4.29"/>
      <rect class="cls-4" x="11.6" y="72.92" width="3.86" height="4.29"/>
      <rect class="cls-7" x="11.6" y="68.63" width="3.86" height="4.29"/>
      <rect class="cls-7" x="11.6" y="64.34" width="3.86" height="4.29"/>
      <rect class="cls-7" x="11.6" y="60.05" width="3.86" height="4.29"/>
      <rect class="cls-6" x="11.6" y="55.76" width="3.86" height="4.29"/>
      <rect class="cls-6" x="11.6" y="51.47" width="3.86" height="4.29"/>
      <rect class="cls-6" x="11.6" y="47.18" width="3.86" height="4.29"/>
      <rect class="cls-4" x="11.6" y="42.89" width="3.86" height="4.29"/>
      <rect class="cls-6" x="11.6" y="38.6" width="3.86" height="4.29"/>
      <rect class="cls-7" x="11.6" y="34.31" width="3.86" height="4.29"/>
      <rect class="cls-6" x="11.6" y="30.03" width="3.86" height="4.28"/>
      <rect class="cls-2" x="11.6" y="25.74" width="3.86" height="4.29"/>
      <rect class="cls-2" x="11.6" y="21.45" width="3.86" height="4.29"/>
      <rect class="cls-6" x="11.6" y="17.16" width="3.86" height="4.29"/>
      <rect class="cls-6" x="11.6" y="12.87" width="3.86" height="4.29"/>
      <rect class="cls-6" x="11.6" y="8.58" width="3.86" height="4.29"/>
      <polygon class="cls-1" points="15.46 102.95 11.6 105.09 11.6 102.95 15.46 102.95"/>
      <rect class="cls-5" x="7.73" y="111.53" width="3.87" height="4.29"/>
      <rect class="cls-1" x="7.73" y="107.24" width="3.87" height="4.29"/>
      <polygon class="cls-4" points="11.6 105.09 11.6 107.24 7.73 107.24 11.6 105.09"/>
      <polygon class="cls-4" points="11.6 102.95 11.6 105.09 7.73 107.24 7.73 102.95 11.6 102.95"/>
      <rect class="cls-4" x="7.73" y="98.66" width="3.87" height="4.29"/>
      <rect class="cls-4" x="7.73" y="94.37" width="3.87" height="4.29"/>
      <rect class="cls-4" x="7.73" y="90.08" width="3.87" height="4.29"/>
      <rect class="cls-7" x="7.73" y="85.79" width="3.87" height="4.29"/>
      <rect class="cls-1" x="7.73" y="81.5" width="3.87" height="4.29"/>
      <rect class="cls-4" x="7.73" y="77.21" width="3.87" height="4.29"/>
      <rect class="cls-7" x="7.73" y="72.92" width="3.87" height="4.29"/>
      <rect class="cls-1" x="7.73" y="68.63" width="3.87" height="4.29"/>
      <rect class="cls-7" x="7.73" y="64.34" width="3.87" height="4.29"/>
      <rect class="cls-6" x="7.73" y="60.05" width="3.87" height="4.29"/>
      <rect class="cls-7" x="7.73" y="55.76" width="3.87" height="4.29"/>
      <rect class="cls-4" x="7.73" y="51.47" width="3.87" height="4.29"/>
      <rect class="cls-6" x="7.73" y="47.18" width="3.87" height="4.29"/>
      <rect class="cls-2" x="7.73" y="42.89" width="3.87" height="4.29"/>
      <rect class="cls-6" x="7.73" y="38.6" width="3.87" height="4.29"/>
      <rect class="cls-2" x="7.73" y="34.31" width="3.87" height="4.29"/>
      <rect class="cls-7" x="7.73" y="30.03" width="3.87" height="4.28"/>
      <rect class="cls-2" x="7.73" y="25.74" width="3.87" height="4.29"/>
      <rect class="cls-6" x="7.73" y="21.45" width="3.87" height="4.29"/>
      <rect class="cls-2" x="7.73" y="17.16" width="3.87" height="4.29"/>
      <rect class="cls-6" x="7.73" y="12.87" width="3.87" height="4.29"/>
      <rect class="cls-4" x="7.73" y="8.58" width="3.87" height="4.29"/>
      <rect class="cls-2" x="7.73" y="4.29" width="3.87" height="4.29"/>
      <polygon class="cls-1" points="7.73 111.53 7.73 115.82 4.79 115.82 3.87 115 3.87 111.53 7.73 111.53"/>
      <polygon class="cls-1" points="7.73 107.24 7.73 111.53 3.87 111.53 3.87 109.38 7.73 107.24"/>
      <rect class="cls-1" x="3.87" y="102.95" width="3.86" height="4.29"/>
      <rect class="cls-4" x="3.87" y="98.66" width="3.86" height="4.29"/>
      <rect class="cls-7" x="3.87" y="94.37" width="3.86" height="4.29"/>
      <rect class="cls-5" x="3.87" y="90.08" width="3.86" height="4.29"/>
      <rect class="cls-4" x="3.87" y="85.79" width="3.86" height="4.29"/>
      <rect class="cls-4" x="3.87" y="81.5" width="3.86" height="4.29"/>
      <rect class="cls-2" x="3.87" y="77.21" width="3.86" height="4.29"/>
      <rect class="cls-2" x="3.87" y="72.92" width="3.86" height="4.29"/>
      <rect class="cls-6" x="3.87" y="68.63" width="3.86" height="4.29"/>
      <rect class="cls-6" x="3.87" y="64.34" width="3.86" height="4.29"/>
      <rect class="cls-6" x="3.87" y="60.05" width="3.86" height="4.29"/>
      <rect class="cls-2" x="3.87" y="55.76" width="3.86" height="4.29"/>
      <rect class="cls-2" x="3.87" y="51.47" width="3.86" height="4.29"/>
      <rect class="cls-3" x="3.87" y="47.18" width="3.86" height="4.29"/>
      <rect class="cls-6" x="3.87" y="38.6" width="3.86" height="4.29"/>
      <rect class="cls-4" x="3.87" y="34.31" width="3.86" height="4.29"/>
      <rect class="cls-6" x="3.87" y="30.03" width="3.86" height="4.28"/>
      <rect class="cls-6" x="3.87" y="25.74" width="3.86" height="4.29"/>
      <rect class="cls-2" x="3.87" y="21.45" width="3.86" height="4.29"/>
      <rect class="cls-2" x="3.87" y="12.87" width="3.86" height="4.29"/>
      <rect class="cls-3" x="3.87" y="8.58" width="3.86" height="4.29"/>
      <polygon class="cls-1" points="7.73 107.24 3.87 109.38 3.87 107.24 7.73 107.24"/>
      <polygon class="cls-1" points="4.79 115.82 3.87 115.82 3.87 115 4.79 115.82"/>
      <polygon class="cls-8" points="3.87 111.53 3.87 115 0 111.53 3.87 111.53"/>
      <polygon class="cls-1" points="3.87 109.38 3.87 111.53 0 111.53 3.87 109.38"/>
      <polygon class="cls-1" points="3.87 107.24 3.87 109.38 0 111.53 0 107.24 3.87 107.24"/>
      <rect class="cls-4" y="102.95" width="3.87" height="4.29"/>
      <rect class="cls-4" y="98.66" width="3.87" height="4.29"/>
      <rect class="cls-1" y="85.79" width="3.87" height="4.29"/>
      <rect class="cls-1" y="81.5" width="3.87" height="4.29"/>
      <rect class="cls-1" y="77.21" width="3.87" height="4.29"/>
      <rect class="cls-1" y="72.92" width="3.87" height="4.29"/>
      <rect class="cls-3" y="34.31" width="3.87" height="4.29"/>
      <rect class="cls-2" y="30.03" width="3.87" height="4.28"/>
      <rect class="cls-3" y="25.74" width="3.87" height="4.29"/>
      <rect class="cls-2" y="21.45" width="3.87" height="4.29"/>
    </g>
  </g>
</svg>